<mxfile host="Electron" agent="Mozilla/5.0 (Windows NT 10.0; Win64; x64) AppleWebKit/537.36 (KHTML, like Gecko) draw.io/24.7.8 Chrome/128.0.6613.36 Electron/32.0.1 Safari/537.36" version="24.7.8">
  <diagram name="Страница — 1" id="E6bSnF_VHT4iEEO59rYy">
    <mxGraphModel dx="1750" dy="1035" grid="1" gridSize="10" guides="1" tooltips="1" connect="1" arrows="1" fold="1" page="1" pageScale="1" pageWidth="827" pageHeight="1169" math="0" shadow="0">
      <root>
        <mxCell id="0" />
        <mxCell id="1" parent="0" />
        <mxCell id="m1uOOj59rF31rRHAzahm-8" value="" style="rounded=0;whiteSpace=wrap;html=1;" parent="1" vertex="1">
          <mxGeometry x="440" y="280" width="780" height="810" as="geometry" />
        </mxCell>
        <mxCell id="4aJVaFBn8uNp1Ig8Rj45-1" value="Пользователь" style="shape=umlActor;verticalLabelPosition=bottom;verticalAlign=top;html=1;outlineConnect=0;fontFamily=Times New Roman;fontSize=14;" parent="1" vertex="1">
          <mxGeometry x="360" y="345" width="30" height="60" as="geometry" />
        </mxCell>
        <mxCell id="4aJVaFBn8uNp1Ig8Rj45-16" style="edgeStyle=none;shape=connector;rounded=0;orthogonalLoop=1;jettySize=auto;html=1;strokeColor=default;align=center;verticalAlign=middle;fontFamily=Helvetica;fontSize=11;fontColor=default;labelBackgroundColor=default;endArrow=block;endFill=0;" parent="1" edge="1">
          <mxGeometry relative="1" as="geometry">
            <mxPoint x="375" y="505" as="sourcePoint" />
            <mxPoint x="375" y="435" as="targetPoint" />
          </mxGeometry>
        </mxCell>
        <mxCell id="gjHrM2PTtC39Y9KLKscD-5" style="edgeStyle=none;shape=connector;rounded=0;orthogonalLoop=1;jettySize=auto;html=1;exitX=1;exitY=0.3333333333333333;exitDx=0;exitDy=0;exitPerimeter=0;strokeColor=default;align=center;verticalAlign=middle;fontFamily=Helvetica;fontSize=11;fontColor=default;labelBackgroundColor=default;endArrow=classic;" parent="1" source="4aJVaFBn8uNp1Ig8Rj45-3" target="m1uOOj59rF31rRHAzahm-59" edge="1">
          <mxGeometry relative="1" as="geometry" />
        </mxCell>
        <mxCell id="gjHrM2PTtC39Y9KLKscD-6" style="edgeStyle=none;shape=connector;rounded=0;orthogonalLoop=1;jettySize=auto;html=1;exitX=1;exitY=0.3333333333333333;exitDx=0;exitDy=0;exitPerimeter=0;strokeColor=default;align=center;verticalAlign=middle;fontFamily=Helvetica;fontSize=11;fontColor=default;labelBackgroundColor=default;endArrow=classic;" parent="1" source="4aJVaFBn8uNp1Ig8Rj45-3" target="m1uOOj59rF31rRHAzahm-47" edge="1">
          <mxGeometry relative="1" as="geometry" />
        </mxCell>
        <mxCell id="gjHrM2PTtC39Y9KLKscD-7" style="edgeStyle=none;shape=connector;rounded=0;orthogonalLoop=1;jettySize=auto;html=1;exitX=1;exitY=0.3333333333333333;exitDx=0;exitDy=0;exitPerimeter=0;strokeColor=default;align=center;verticalAlign=middle;fontFamily=Helvetica;fontSize=11;fontColor=default;labelBackgroundColor=default;endArrow=classic;" parent="1" source="4aJVaFBn8uNp1Ig8Rj45-3" target="m1uOOj59rF31rRHAzahm-53" edge="1">
          <mxGeometry relative="1" as="geometry" />
        </mxCell>
        <mxCell id="gjHrM2PTtC39Y9KLKscD-8" style="edgeStyle=none;shape=connector;rounded=0;orthogonalLoop=1;jettySize=auto;html=1;exitX=1;exitY=0.3333333333333333;exitDx=0;exitDy=0;exitPerimeter=0;strokeColor=default;align=center;verticalAlign=middle;fontFamily=Helvetica;fontSize=11;fontColor=default;labelBackgroundColor=default;endArrow=classic;" parent="1" source="4aJVaFBn8uNp1Ig8Rj45-3" target="m1uOOj59rF31rRHAzahm-26" edge="1">
          <mxGeometry relative="1" as="geometry" />
        </mxCell>
        <mxCell id="gjHrM2PTtC39Y9KLKscD-9" style="edgeStyle=none;shape=connector;rounded=0;orthogonalLoop=1;jettySize=auto;html=1;exitX=1;exitY=0.3333333333333333;exitDx=0;exitDy=0;exitPerimeter=0;strokeColor=default;align=center;verticalAlign=middle;fontFamily=Helvetica;fontSize=11;fontColor=default;labelBackgroundColor=default;endArrow=classic;" parent="1" source="4aJVaFBn8uNp1Ig8Rj45-3" target="m1uOOj59rF31rRHAzahm-18" edge="1">
          <mxGeometry relative="1" as="geometry" />
        </mxCell>
        <mxCell id="4aJVaFBn8uNp1Ig8Rj45-3" value="Клиент" style="shape=umlActor;verticalLabelPosition=bottom;verticalAlign=top;html=1;outlineConnect=0;fontFamily=Times New Roman;fontSize=14;" parent="1" vertex="1">
          <mxGeometry x="360" y="525" width="30" height="60" as="geometry" />
        </mxCell>
        <mxCell id="m1uOOj59rF31rRHAzahm-22" style="edgeStyle=none;shape=connector;rounded=0;orthogonalLoop=1;jettySize=auto;html=1;dashed=1;strokeColor=default;align=center;verticalAlign=middle;fontFamily=Helvetica;fontSize=11;fontColor=default;labelBackgroundColor=default;startArrow=classic;startFill=1;endArrow=none;endFill=0;" parent="1" source="m1uOOj59rF31rRHAzahm-18" target="m1uOOj59rF31rRHAzahm-19" edge="1">
          <mxGeometry relative="1" as="geometry" />
        </mxCell>
        <mxCell id="m1uOOj59rF31rRHAzahm-66" value="&amp;lt;&amp;lt;расширить&amp;gt;&amp;gt;" style="edgeLabel;html=1;align=center;verticalAlign=middle;resizable=0;points=[];fontFamily=Helvetica;fontSize=11;fontColor=default;labelBackgroundColor=default;" parent="m1uOOj59rF31rRHAzahm-22" vertex="1" connectable="0">
          <mxGeometry x="0.1141" y="2" relative="1" as="geometry">
            <mxPoint as="offset" />
          </mxGeometry>
        </mxCell>
        <mxCell id="m1uOOj59rF31rRHAzahm-23" style="edgeStyle=none;shape=connector;rounded=0;orthogonalLoop=1;jettySize=auto;html=1;dashed=1;strokeColor=default;align=center;verticalAlign=middle;fontFamily=Helvetica;fontSize=11;fontColor=default;labelBackgroundColor=default;startArrow=classic;startFill=1;endArrow=none;endFill=0;" parent="1" source="m1uOOj59rF31rRHAzahm-18" target="m1uOOj59rF31rRHAzahm-21" edge="1">
          <mxGeometry relative="1" as="geometry" />
        </mxCell>
        <mxCell id="m1uOOj59rF31rRHAzahm-64" value="&amp;lt;&amp;lt;расширить&amp;gt;&amp;gt;" style="edgeLabel;html=1;align=center;verticalAlign=middle;resizable=0;points=[];fontFamily=Helvetica;fontSize=11;fontColor=default;labelBackgroundColor=default;" parent="m1uOOj59rF31rRHAzahm-23" vertex="1" connectable="0">
          <mxGeometry x="0.2382" y="2" relative="1" as="geometry">
            <mxPoint x="3" y="13" as="offset" />
          </mxGeometry>
        </mxCell>
        <mxCell id="m1uOOj59rF31rRHAzahm-24" style="edgeStyle=none;shape=connector;rounded=0;orthogonalLoop=1;jettySize=auto;html=1;dashed=1;strokeColor=default;align=center;verticalAlign=middle;fontFamily=Helvetica;fontSize=11;fontColor=default;labelBackgroundColor=default;startArrow=classic;startFill=1;endArrow=none;endFill=0;" parent="1" source="m1uOOj59rF31rRHAzahm-18" target="m1uOOj59rF31rRHAzahm-20" edge="1">
          <mxGeometry relative="1" as="geometry" />
        </mxCell>
        <mxCell id="m1uOOj59rF31rRHAzahm-65" value="&amp;lt;&amp;lt;расширить&amp;gt;&amp;gt;" style="edgeLabel;html=1;align=center;verticalAlign=middle;resizable=0;points=[];fontFamily=Helvetica;fontSize=11;fontColor=default;labelBackgroundColor=default;" parent="m1uOOj59rF31rRHAzahm-24" vertex="1" connectable="0">
          <mxGeometry x="0.0071" y="-5" relative="1" as="geometry">
            <mxPoint as="offset" />
          </mxGeometry>
        </mxCell>
        <mxCell id="m1uOOj59rF31rRHAzahm-40" style="edgeStyle=none;shape=connector;rounded=0;orthogonalLoop=1;jettySize=auto;html=1;dashed=1;strokeColor=default;align=center;verticalAlign=middle;fontFamily=Helvetica;fontSize=11;fontColor=default;labelBackgroundColor=default;startArrow=classic;startFill=1;endArrow=none;endFill=0;" parent="1" source="m1uOOj59rF31rRHAzahm-18" target="m1uOOj59rF31rRHAzahm-38" edge="1">
          <mxGeometry relative="1" as="geometry" />
        </mxCell>
        <mxCell id="m1uOOj59rF31rRHAzahm-67" value="&amp;lt;&amp;lt;расширить&amp;gt;&amp;gt;" style="edgeLabel;html=1;align=center;verticalAlign=middle;resizable=0;points=[];fontFamily=Helvetica;fontSize=11;fontColor=default;labelBackgroundColor=default;" parent="m1uOOj59rF31rRHAzahm-40" vertex="1" connectable="0">
          <mxGeometry x="-0.173" y="-1" relative="1" as="geometry">
            <mxPoint x="-1" as="offset" />
          </mxGeometry>
        </mxCell>
        <mxCell id="m1uOOj59rF31rRHAzahm-18" value="&lt;span style=&quot;font-family: &amp;quot;Times New Roman&amp;quot;, serif;&quot;&gt;Контроль&lt;/span&gt;&lt;div&gt;&lt;font face=&quot;Times New Roman, serif&quot;&gt;своих каналов&lt;/font&gt;&lt;/div&gt;" style="ellipse;whiteSpace=wrap;html=1;fontFamily=Times New Roman;fontSize=14;" parent="1" vertex="1">
          <mxGeometry x="790" y="535" width="130" height="90" as="geometry" />
        </mxCell>
        <mxCell id="m1uOOj59rF31rRHAzahm-19" value="&lt;font face=&quot;Times New Roman, serif&quot;&gt;11. Создание канала&lt;/font&gt;" style="ellipse;whiteSpace=wrap;html=1;fontFamily=Times New Roman;fontSize=14;" parent="1" vertex="1">
          <mxGeometry x="1070" y="655" width="130" height="90" as="geometry" />
        </mxCell>
        <mxCell id="m1uOOj59rF31rRHAzahm-20" value="&lt;font face=&quot;Times New Roman, serif&quot;&gt;10. Редактирование канала&lt;/font&gt;" style="ellipse;whiteSpace=wrap;html=1;fontFamily=Times New Roman;fontSize=14;" parent="1" vertex="1">
          <mxGeometry x="940" y="715" width="130" height="90" as="geometry" />
        </mxCell>
        <mxCell id="m1uOOj59rF31rRHAzahm-21" value="&lt;font face=&quot;Times New Roman, serif&quot;&gt;9. Удаление канала&lt;/font&gt;" style="ellipse;whiteSpace=wrap;html=1;fontFamily=Times New Roman;fontSize=14;" parent="1" vertex="1">
          <mxGeometry x="790" y="725" width="130" height="90" as="geometry" />
        </mxCell>
        <mxCell id="m1uOOj59rF31rRHAzahm-33" style="edgeStyle=none;shape=connector;rounded=0;orthogonalLoop=1;jettySize=auto;html=1;dashed=1;strokeColor=default;align=center;verticalAlign=middle;fontFamily=Helvetica;fontSize=11;fontColor=default;labelBackgroundColor=default;startArrow=classic;startFill=1;endArrow=none;endFill=0;" parent="1" source="m1uOOj59rF31rRHAzahm-26" target="m1uOOj59rF31rRHAzahm-29" edge="1">
          <mxGeometry relative="1" as="geometry" />
        </mxCell>
        <mxCell id="m1uOOj59rF31rRHAzahm-68" value="&amp;lt;&amp;lt;расширить&amp;gt;&amp;gt;" style="edgeLabel;html=1;align=center;verticalAlign=middle;resizable=0;points=[];fontFamily=Helvetica;fontSize=11;fontColor=default;labelBackgroundColor=default;" parent="m1uOOj59rF31rRHAzahm-33" vertex="1" connectable="0">
          <mxGeometry x="-0.0089" relative="1" as="geometry">
            <mxPoint as="offset" />
          </mxGeometry>
        </mxCell>
        <mxCell id="m1uOOj59rF31rRHAzahm-34" style="edgeStyle=none;shape=connector;rounded=0;orthogonalLoop=1;jettySize=auto;html=1;dashed=1;strokeColor=default;align=center;verticalAlign=middle;fontFamily=Helvetica;fontSize=11;fontColor=default;labelBackgroundColor=default;startArrow=classic;startFill=1;endArrow=none;endFill=0;" parent="1" source="m1uOOj59rF31rRHAzahm-26" target="m1uOOj59rF31rRHAzahm-31" edge="1">
          <mxGeometry relative="1" as="geometry" />
        </mxCell>
        <mxCell id="m1uOOj59rF31rRHAzahm-69" value="&amp;lt;&amp;lt;расширить&amp;gt;&amp;gt;" style="edgeLabel;html=1;align=center;verticalAlign=middle;resizable=0;points=[];fontFamily=Helvetica;fontSize=11;fontColor=default;labelBackgroundColor=default;" parent="m1uOOj59rF31rRHAzahm-34" vertex="1" connectable="0">
          <mxGeometry x="0.0206" y="4" relative="1" as="geometry">
            <mxPoint as="offset" />
          </mxGeometry>
        </mxCell>
        <mxCell id="m1uOOj59rF31rRHAzahm-36" style="edgeStyle=none;shape=connector;rounded=0;orthogonalLoop=1;jettySize=auto;html=1;dashed=1;strokeColor=default;align=center;verticalAlign=middle;fontFamily=Helvetica;fontSize=11;fontColor=default;labelBackgroundColor=default;startArrow=classic;startFill=1;endArrow=none;endFill=0;" parent="1" source="m1uOOj59rF31rRHAzahm-26" target="m1uOOj59rF31rRHAzahm-32" edge="1">
          <mxGeometry relative="1" as="geometry" />
        </mxCell>
        <mxCell id="m1uOOj59rF31rRHAzahm-71" value="&amp;lt;&amp;lt;расширить&amp;gt;&amp;gt;" style="edgeLabel;html=1;align=center;verticalAlign=middle;resizable=0;points=[];fontFamily=Helvetica;fontSize=11;fontColor=default;labelBackgroundColor=default;" parent="m1uOOj59rF31rRHAzahm-36" vertex="1" connectable="0">
          <mxGeometry x="-0.0531" y="-3" relative="1" as="geometry">
            <mxPoint as="offset" />
          </mxGeometry>
        </mxCell>
        <mxCell id="m1uOOj59rF31rRHAzahm-37" style="edgeStyle=none;shape=connector;rounded=0;orthogonalLoop=1;jettySize=auto;html=1;dashed=1;strokeColor=default;align=center;verticalAlign=middle;fontFamily=Helvetica;fontSize=11;fontColor=default;labelBackgroundColor=default;startArrow=classic;startFill=1;endArrow=none;endFill=0;" parent="1" source="m1uOOj59rF31rRHAzahm-26" target="m1uOOj59rF31rRHAzahm-28" edge="1">
          <mxGeometry relative="1" as="geometry" />
        </mxCell>
        <mxCell id="m1uOOj59rF31rRHAzahm-72" value="&amp;lt;&amp;lt;расширить&amp;gt;&amp;gt;" style="edgeLabel;html=1;align=center;verticalAlign=middle;resizable=0;points=[];fontFamily=Helvetica;fontSize=11;fontColor=default;labelBackgroundColor=default;" parent="m1uOOj59rF31rRHAzahm-37" vertex="1" connectable="0">
          <mxGeometry x="0.0511" y="-2" relative="1" as="geometry">
            <mxPoint as="offset" />
          </mxGeometry>
        </mxCell>
        <mxCell id="m1uOOj59rF31rRHAzahm-26" value="&lt;font face=&quot;Times New Roman, serif&quot;&gt;Контроль своих плейлистов&lt;/font&gt;" style="ellipse;whiteSpace=wrap;html=1;fontFamily=Times New Roman;fontSize=14;" parent="1" vertex="1">
          <mxGeometry x="480" y="830" width="130" height="90" as="geometry" />
        </mxCell>
        <mxCell id="m1uOOj59rF31rRHAzahm-28" value="&lt;font face=&quot;Times New Roman, serif&quot;&gt;21. Создание плейлиста&lt;/font&gt;" style="ellipse;whiteSpace=wrap;html=1;fontFamily=Times New Roman;fontSize=14;" parent="1" vertex="1">
          <mxGeometry x="480" y="980" width="130" height="90" as="geometry" />
        </mxCell>
        <mxCell id="m1uOOj59rF31rRHAzahm-29" value="&lt;font face=&quot;Times New Roman, serif&quot;&gt;25. Удаление плейлиcта&lt;/font&gt;" style="ellipse;whiteSpace=wrap;html=1;fontFamily=Times New Roman;fontSize=14;" parent="1" vertex="1">
          <mxGeometry x="970" y="815" width="130" height="90" as="geometry" />
        </mxCell>
        <mxCell id="m1uOOj59rF31rRHAzahm-30" value="&lt;font face=&quot;Times New Roman, serif&quot;&gt;23. Добавление видео в плейлист&lt;/font&gt;" style="ellipse;whiteSpace=wrap;html=1;fontFamily=Times New Roman;fontSize=14;" parent="1" vertex="1">
          <mxGeometry x="810" y="945" width="130" height="90" as="geometry" />
        </mxCell>
        <mxCell id="m1uOOj59rF31rRHAzahm-31" value="&lt;font face=&quot;Times New Roman, serif&quot;&gt;24. Воспроизведение плейлиста&lt;/font&gt;" style="ellipse;whiteSpace=wrap;html=1;fontFamily=Times New Roman;fontSize=14;" parent="1" vertex="1">
          <mxGeometry x="960" y="920" width="140" height="85" as="geometry" />
        </mxCell>
        <mxCell id="m1uOOj59rF31rRHAzahm-32" value="&lt;font face=&quot;Times New Roman, serif&quot;&gt;22. Удаление видео из плейлиста&lt;/font&gt;" style="ellipse;whiteSpace=wrap;html=1;fontFamily=Times New Roman;fontSize=14;" parent="1" vertex="1">
          <mxGeometry x="660" y="970" width="130" height="90" as="geometry" />
        </mxCell>
        <mxCell id="m1uOOj59rF31rRHAzahm-35" style="edgeStyle=none;shape=connector;rounded=0;orthogonalLoop=1;jettySize=auto;html=1;entryX=0.083;entryY=0.274;entryDx=0;entryDy=0;entryPerimeter=0;dashed=1;strokeColor=default;align=center;verticalAlign=middle;fontFamily=Helvetica;fontSize=11;fontColor=default;labelBackgroundColor=default;startArrow=classic;startFill=1;endArrow=none;endFill=0;" parent="1" source="m1uOOj59rF31rRHAzahm-26" target="m1uOOj59rF31rRHAzahm-30" edge="1">
          <mxGeometry relative="1" as="geometry" />
        </mxCell>
        <mxCell id="m1uOOj59rF31rRHAzahm-70" value="&amp;lt;&amp;lt;расширить&amp;gt;&amp;gt;" style="edgeLabel;html=1;align=center;verticalAlign=middle;resizable=0;points=[];fontFamily=Helvetica;fontSize=11;fontColor=default;labelBackgroundColor=default;" parent="m1uOOj59rF31rRHAzahm-35" vertex="1" connectable="0">
          <mxGeometry x="-0.0214" y="-1" relative="1" as="geometry">
            <mxPoint x="1" as="offset" />
          </mxGeometry>
        </mxCell>
        <mxCell id="m1uOOj59rF31rRHAzahm-44" style="edgeStyle=none;shape=connector;rounded=0;orthogonalLoop=1;jettySize=auto;html=1;dashed=1;strokeColor=default;align=center;verticalAlign=middle;fontFamily=Helvetica;fontSize=11;fontColor=default;labelBackgroundColor=default;startArrow=classic;startFill=1;endArrow=none;endFill=0;" parent="1" source="m1uOOj59rF31rRHAzahm-38" target="m1uOOj59rF31rRHAzahm-42" edge="1">
          <mxGeometry relative="1" as="geometry" />
        </mxCell>
        <mxCell id="m1uOOj59rF31rRHAzahm-77" value="&amp;lt;&amp;lt;расширить&amp;gt;&amp;gt;" style="edgeLabel;html=1;align=center;verticalAlign=middle;resizable=0;points=[];fontFamily=Helvetica;fontSize=11;fontColor=default;labelBackgroundColor=default;" parent="m1uOOj59rF31rRHAzahm-44" vertex="1" connectable="0">
          <mxGeometry x="0.239" y="-5" relative="1" as="geometry">
            <mxPoint x="-1" as="offset" />
          </mxGeometry>
        </mxCell>
        <mxCell id="m1uOOj59rF31rRHAzahm-45" style="edgeStyle=none;shape=connector;rounded=0;orthogonalLoop=1;jettySize=auto;html=1;dashed=1;strokeColor=default;align=center;verticalAlign=middle;fontFamily=Helvetica;fontSize=11;fontColor=default;labelBackgroundColor=default;startArrow=classic;startFill=1;endArrow=none;endFill=0;" parent="1" source="m1uOOj59rF31rRHAzahm-38" target="m1uOOj59rF31rRHAzahm-43" edge="1">
          <mxGeometry relative="1" as="geometry" />
        </mxCell>
        <mxCell id="m1uOOj59rF31rRHAzahm-76" value="&amp;lt;&amp;lt;расширить&amp;gt;&amp;gt;" style="edgeLabel;html=1;align=center;verticalAlign=middle;resizable=0;points=[];fontFamily=Helvetica;fontSize=11;fontColor=default;labelBackgroundColor=default;" parent="m1uOOj59rF31rRHAzahm-45" vertex="1" connectable="0">
          <mxGeometry x="0.3055" y="1" relative="1" as="geometry">
            <mxPoint x="-26" y="-8" as="offset" />
          </mxGeometry>
        </mxCell>
        <mxCell id="m1uOOj59rF31rRHAzahm-46" style="edgeStyle=none;shape=connector;rounded=0;orthogonalLoop=1;jettySize=auto;html=1;dashed=1;strokeColor=default;align=center;verticalAlign=middle;fontFamily=Helvetica;fontSize=11;fontColor=default;labelBackgroundColor=default;startArrow=classic;startFill=1;endArrow=none;endFill=0;" parent="1" source="m1uOOj59rF31rRHAzahm-38" target="m1uOOj59rF31rRHAzahm-41" edge="1">
          <mxGeometry relative="1" as="geometry" />
        </mxCell>
        <mxCell id="m1uOOj59rF31rRHAzahm-74" value="&amp;lt;&amp;lt;расширить&amp;gt;&amp;gt;" style="edgeLabel;html=1;align=center;verticalAlign=middle;resizable=0;points=[];fontFamily=Helvetica;fontSize=11;fontColor=default;labelBackgroundColor=default;" parent="m1uOOj59rF31rRHAzahm-46" vertex="1" connectable="0">
          <mxGeometry x="0.4403" y="2" relative="1" as="geometry">
            <mxPoint x="-15" y="12" as="offset" />
          </mxGeometry>
        </mxCell>
        <mxCell id="m1uOOj59rF31rRHAzahm-52" style="edgeStyle=none;shape=connector;rounded=0;orthogonalLoop=1;jettySize=auto;html=1;dashed=1;strokeColor=default;align=center;verticalAlign=middle;fontFamily=Helvetica;fontSize=11;fontColor=default;labelBackgroundColor=default;startArrow=classic;startFill=1;endArrow=none;endFill=0;" parent="1" source="m1uOOj59rF31rRHAzahm-38" target="m1uOOj59rF31rRHAzahm-51" edge="1">
          <mxGeometry relative="1" as="geometry" />
        </mxCell>
        <mxCell id="m1uOOj59rF31rRHAzahm-75" value="&amp;lt;&amp;lt;расширить&amp;gt;&amp;gt;" style="edgeLabel;html=1;align=center;verticalAlign=middle;resizable=0;points=[];fontFamily=Helvetica;fontSize=11;fontColor=default;labelBackgroundColor=default;" parent="m1uOOj59rF31rRHAzahm-52" vertex="1" connectable="0">
          <mxGeometry x="0.3062" y="2" relative="1" as="geometry">
            <mxPoint as="offset" />
          </mxGeometry>
        </mxCell>
        <mxCell id="m1uOOj59rF31rRHAzahm-38" value="&lt;font face=&quot;Times New Roman, serif&quot;&gt;Контроль над видео&amp;nbsp;&lt;/font&gt;&lt;span style=&quot;font-family: &amp;quot;Times New Roman&amp;quot;, serif; background-color: initial;&quot;&gt;в своих каналах&lt;/span&gt;" style="ellipse;whiteSpace=wrap;html=1;fontFamily=Times New Roman;fontSize=14;" parent="1" vertex="1">
          <mxGeometry x="650" y="400" width="130" height="90" as="geometry" />
        </mxCell>
        <mxCell id="m1uOOj59rF31rRHAzahm-41" value="&lt;font face=&quot;Times New Roman, serif&quot;&gt;14. Удаление видео&lt;/font&gt;" style="ellipse;whiteSpace=wrap;html=1;fontFamily=Times New Roman;fontSize=14;" parent="1" vertex="1">
          <mxGeometry x="805" y="290" width="130" height="90" as="geometry" />
        </mxCell>
        <mxCell id="m1uOOj59rF31rRHAzahm-42" value="&lt;font face=&quot;Times New Roman, serif&quot;&gt;12. Загрузка видео&lt;/font&gt;" style="ellipse;whiteSpace=wrap;html=1;fontFamily=Times New Roman;fontSize=14;" parent="1" vertex="1">
          <mxGeometry x="990" y="535" width="130" height="90" as="geometry" />
        </mxCell>
        <mxCell id="m1uOOj59rF31rRHAzahm-43" value="&lt;font face=&quot;Times New Roman, serif&quot;&gt;13. Редактирование данных видео&lt;/font&gt;" style="ellipse;whiteSpace=wrap;html=1;fontFamily=Times New Roman;fontSize=14;" parent="1" vertex="1">
          <mxGeometry x="1080" y="445" width="130" height="90" as="geometry" />
        </mxCell>
        <mxCell id="m1uOOj59rF31rRHAzahm-47" value="&lt;font face=&quot;Times New Roman, serif&quot;&gt;16. Оставление жалобы под видео&lt;/font&gt;" style="ellipse;whiteSpace=wrap;html=1;fontFamily=Times New Roman;fontSize=14;" parent="1" vertex="1">
          <mxGeometry x="480" y="435" width="130" height="90" as="geometry" />
        </mxCell>
        <mxCell id="m1uOOj59rF31rRHAzahm-51" value="&lt;font face=&quot;Times New Roman, serif&quot;&gt;15. Удаление комметариев под своими видео&lt;/font&gt;" style="ellipse;whiteSpace=wrap;html=1;fontFamily=Times New Roman;fontSize=14;" parent="1" vertex="1">
          <mxGeometry x="970" y="360" width="130" height="90" as="geometry" />
        </mxCell>
        <mxCell id="m1uOOj59rF31rRHAzahm-57" style="edgeStyle=none;shape=connector;rounded=0;orthogonalLoop=1;jettySize=auto;html=1;dashed=1;strokeColor=default;align=center;verticalAlign=middle;fontFamily=Helvetica;fontSize=11;fontColor=default;labelBackgroundColor=default;startArrow=classic;startFill=1;endArrow=none;endFill=0;" parent="1" source="m1uOOj59rF31rRHAzahm-53" target="m1uOOj59rF31rRHAzahm-56" edge="1">
          <mxGeometry relative="1" as="geometry" />
        </mxCell>
        <mxCell id="m1uOOj59rF31rRHAzahm-62" value="&amp;lt;&amp;lt;расширить&amp;gt;&amp;gt;" style="edgeLabel;html=1;align=center;verticalAlign=middle;resizable=0;points=[];fontFamily=Helvetica;fontSize=11;fontColor=default;labelBackgroundColor=default;" parent="m1uOOj59rF31rRHAzahm-57" vertex="1" connectable="0">
          <mxGeometry x="-0.1397" y="5" relative="1" as="geometry">
            <mxPoint x="9" y="4" as="offset" />
          </mxGeometry>
        </mxCell>
        <mxCell id="m1uOOj59rF31rRHAzahm-58" style="edgeStyle=none;shape=connector;rounded=0;orthogonalLoop=1;jettySize=auto;html=1;dashed=1;strokeColor=default;align=center;verticalAlign=middle;fontFamily=Helvetica;fontSize=11;fontColor=default;labelBackgroundColor=default;startArrow=classic;startFill=1;endArrow=none;endFill=0;" parent="1" source="m1uOOj59rF31rRHAzahm-53" target="m1uOOj59rF31rRHAzahm-55" edge="1">
          <mxGeometry relative="1" as="geometry" />
        </mxCell>
        <mxCell id="m1uOOj59rF31rRHAzahm-63" value="&amp;lt;&amp;lt;расширить&amp;gt;&amp;gt;" style="edgeLabel;html=1;align=center;verticalAlign=middle;resizable=0;points=[];fontFamily=Helvetica;fontSize=11;fontColor=default;labelBackgroundColor=default;" parent="m1uOOj59rF31rRHAzahm-58" vertex="1" connectable="0">
          <mxGeometry x="-0.0099" y="2" relative="1" as="geometry">
            <mxPoint as="offset" />
          </mxGeometry>
        </mxCell>
        <mxCell id="m1uOOj59rF31rRHAzahm-53" value="&lt;font face=&quot;Times New Roman, serif&quot;&gt;17. Оставление комментариев под видео&lt;/font&gt;" style="ellipse;whiteSpace=wrap;html=1;fontFamily=Times New Roman;fontSize=14;" parent="1" vertex="1">
          <mxGeometry x="480" y="565" width="130" height="90" as="geometry" />
        </mxCell>
        <mxCell id="m1uOOj59rF31rRHAzahm-55" value="&lt;span style=&quot;font-family: &amp;quot;Times New Roman&amp;quot;, serif;&quot;&gt;19. Редактирование своих комментариев&lt;/span&gt;" style="ellipse;whiteSpace=wrap;html=1;fontFamily=Times New Roman;fontSize=14;" parent="1" vertex="1">
          <mxGeometry x="640" y="725" width="130" height="90" as="geometry" />
        </mxCell>
        <mxCell id="m1uOOj59rF31rRHAzahm-56" value="&lt;font face=&quot;Times New Roman, serif&quot;&gt;18. Удаление своих комментариев&lt;/font&gt;" style="ellipse;whiteSpace=wrap;html=1;fontFamily=Times New Roman;fontSize=14;" parent="1" vertex="1">
          <mxGeometry x="697" y="625" width="130" height="90" as="geometry" />
        </mxCell>
        <mxCell id="m1uOOj59rF31rRHAzahm-59" value="&lt;font face=&quot;Times New Roman, serif&quot;&gt;20. Совместный просмотр&lt;/font&gt;" style="ellipse;whiteSpace=wrap;html=1;fontFamily=Times New Roman;fontSize=14;" parent="1" vertex="1">
          <mxGeometry x="470" y="300" width="130" height="90" as="geometry" />
        </mxCell>
      </root>
    </mxGraphModel>
  </diagram>
</mxfile>
